<?xml version="1.0" encoding="UTF-8" standalone="no"?>
<!-- Created with Inkscape (http://www.inkscape.org/) -->

<svg
   version="1.1"
   id="svg2"
   width="2829.3333"
   height="2829.3333"
   viewBox="0 0 2829.3333 2829.3333"
   sodipodi:docname="vecteezy_man-watch-movie_16756149.eps"
   xmlns:inkscape="http://www.inkscape.org/namespaces/inkscape"
   xmlns:sodipodi="http://sodipodi.sourceforge.net/DTD/sodipodi-0.dtd"
   xmlns="http://www.w3.org/2000/svg"
   xmlns:svg="http://www.w3.org/2000/svg">
  <defs
     id="defs6" />
  <sodipodi:namedview
     id="namedview4"
     pagecolor="#ffffff"
     bordercolor="#000000"
     borderopacity="0.25"
     inkscape:showpageshadow="2"
     inkscape:pageopacity="0.0"
     inkscape:pagecheckerboard="0"
     inkscape:deskcolor="#d1d1d1" />
  <g
     id="g8"
     inkscape:groupmode="layer"
     inkscape:label="ink_ext_XXXXXX"
     transform="matrix(1.3333333,0,0,-1.3333333,0,2829.3333)">
    <g
       id="g10"
       transform="scale(0.1)">
      <path
         d="m 19160.4,10768.1 c -13,84.9 -27.7,169.6 -44.2,254.1 -184.4,949.5 -589.6,1869.9 -1248.5,2628.6 -583.1,671.5 -1349,1201.6 -2173.3,1621.8 -1449.6,739.3 -3102.6,1153.9 -4768.7,1196.2 -753.3,19.2 -1508.85,-36.6 -2249.14,-163.3 -1401.16,-240 -2698.48,-974.2 -3719.43,-1853.9 -1106.45,-953.1 -1932.6,-2165.9 -2399.51,-3476.5 -221.66,-622.9 -365.77,-1267.5 -437,-1918.2 -81.51,-743.4 -68.36,-1493.9 28.59,-2235.6 -8.22,-40.4 -15.91,-81.3 -12.17,-122.2 3.34,-36.6 17.72,-74.1 43.62,-99.3 1.81,-1.7 3.69,-3.4 5.6,-5.1 l -3.18,-10.4 -153.99,-503.5 -58.1,-158.4 368.24,-135 50.31,-18.4 9.86,-223.5 34.95,-791.2 h 2224.89 -0.01 6742.97 v 0 h 5577.1 v 0.1 h 1230.4 c 86.5,150.4 142.5,320.1 193.1,483.8 547.6,1771.7 1038.9,3682.8 757.6,5529.9"
         style="fill:#50579f;fill-opacity:1;fill-rule:nonzero;stroke:none"
         id="path12" />
      <path
         d="m 5716.66,12027.8 c 17.23,-194.8 162.98,-236.2 162.98,-236.2 -141.45,-25.1 -162.98,-215.8 -162.98,-215.8 0,0 -21.53,190.7 -162.97,215.8 0,0 145.74,41.4 162.97,236.2 z M 12552,14173.2 c 17.2,-194.8 162.9,-236.1 162.9,-236.1 -141.4,-25.2 -162.9,-215.9 -162.9,-215.9 0,0 -21.6,190.7 -163,215.9 0,0 145.7,41.3 163,236.1 z M 2209.43,7599.2 c 14.05,164.3 40.62,327.6 77.7,488.4 l -0.55,12.3 3.57,0.7 c 19.56,83.6 41.94,166.5 66.88,248.4 7.43,24.5 15.45,49.1 24.13,73.7 0.37,6.1 0.57,11.5 0.53,16.1 -1.63,194.8 -28.34,389.4 -80.05,577.2 -29.92,108.6 -67.87,225.4 -27.46,330.6 61.63,160.3 290.16,203.3 437.23,114.6 132.98,-80.3 204.91,-232.1 233.33,-386.5 l 264.72,865.6 -43.52,15.9 c -23.8,8.7 -36.13,35.3 -27.4,59.2 8.72,23.7 35.32,36.1 59.1,27.4 l 62.91,-23.1 147.07,77.7 170.61,-62.5 163.18,86.2 598.06,-219.2 374.42,1021.6 3.33,-1.2 -0.01,3.1 1026.1,3.8 0.44,-119.7 -948.22,-3.5 -278.37,-759.5 c 363.87,344.7 818.09,509.8 1379.6,314.4 l 579.99,-215.4 c 2.3,2.9 4.59,5.7 6.89,8.6 297.06,363.9 631.37,701.2 995.98,1010 -88.52,5 -177.56,34.4 -252.21,82.1 -154.02,98.5 -256.41,260.1 -334.31,425.5 -77.9,165.4 -137.07,343.3 -138.69,526.1 -1.02,117.2 24.03,237 77.44,340.7 -4,27 -7.64,54 -10.98,81 -38.86,313.8 -41.03,634 19.73,944.3 29.69,151.6 75.32,302.5 159.29,432.2 46.28,71.4 118.73,141.8 203.19,131 96.23,-12.3 146.16,-118.4 178.71,-209.8 39.92,331.8 179.87,658.9 356.64,942.5 284.67,456.7 664.34,912.7 1191.5,1021 135.18,27.7 304.63,15.5 371.25,-105.4 54.54,-99 10.85,-225.2 -58.39,-314.5 -69.25,-89.3 -162.21,-159.1 -224.48,-253.4 390.66,377.1 926.84,599.4 1469.69,609.4 173.8,3.2 381,-37.1 448.9,-197.1 45.6,-107.7 7.2,-236.2 -66,-327.3 -73.2,-91.2 -176.1,-152.7 -276.6,-212.3 334.4,85.2 694.7,65.2 1017.6,-56.4 106.8,-40.2 212.2,-93.2 288.2,-178.3 76.1,-85 118.1,-207.4 83.4,-316.1 -19.8,-62 -62,-114.1 -105.3,-162.8 -181.6,-204.1 -399.4,-375.9 -640.2,-505 142.6,-17.6 280.3,-73.4 394.9,-160.1 43.2,-32.6 85.2,-72.9 97.7,-125.6 29.2,-122.8 -106.2,-214.4 -216.1,-276.4 -121.2,-68.5 -235.7,-148.8 -341.4,-239.3 99.1,26.7 198.7,51.9 298.7,75.6 2120.2,503.6 4321.7,187.5 6161.7,-893.3 563,-330.7 1074,-741.6 1482.7,-1220.2 -184.4,949.5 -589.6,1869.9 -1248.5,2628.6 -583.1,671.5 -1349,1201.6 -2173.3,1621.8 -1449.6,739.3 -3102.6,1153.9 -4768.7,1196.2 -753.3,19.2 -1508.85,-36.6 -2249.14,-163.3 -1401.16,-240 -2698.48,-974.2 -3719.43,-1853.9 -1106.45,-953.1 -1932.6,-2165.9 -2399.51,-3476.5 -221.66,-622.9 -365.77,-1267.5 -437,-1918.2 -81.51,-743.4 -68.36,-1493.9 28.59,-2235.6 1.27,6.2 2.55,12.5 3.81,18.7 50.86,252.2 34.64,504.7 56.41,759.2"
         style="fill:#444a8a;fill-opacity:1;fill-rule:nonzero;stroke:none"
         id="path14" />
      <path
         d="m 11776.5,9467.8 c -75.9,146.6 -150,261.3 -218.9,327.5 -152.1,145.7 -549.8,142.3 -1007.8,74.5 -460.7,-68 -982.4,-201.1 -1375.6,-312.7 l 5.23,163.6 2.46,77 c 85.83,-3.5 170.4,-3 252.35,1.3 348.06,18.1 701.76,138.8 943.36,389.8 197.1,204.3 305.3,477.3 388.2,748.8 1.9,6.3 3.8,12.7 5.8,19.1 0.8,2.7 1.6,5.4 2.4,8.1 0.9,3.2 1.9,6.5 2.9,9.8 42.8,144.7 81.5,300.8 113.7,463.8 59,4 117.5,12.5 171.6,35.6 88.1,37.6 156.9,111.7 204.1,195.1 47.1,83.3 74.6,176.3 98.8,269 39.3,150.9 70.7,303.8 94,457.9 7.6,50 13.8,103.9 -9.5,148.8 -24.3,47 -76.1,73.6 -127.4,86.7 -114.7,29.1 -232.3,35.5 -349.5,45.6 -2.5,29.5 -5.3,58.9 -8.5,88.3 0,-0.1 0,-0.1 0,-0.1 -0.2,2.4 -0.5,4.7 -0.8,7 -0.2,2.6 -0.5,5.2 -0.8,7.8 -2.5,21.4 -5.1,42.8 -7.9,64.1 67.5,77.1 140.6,149.2 218.4,215.9 105.7,90.5 220.2,170.8 341.4,239.3 109.9,62 245.3,153.6 216.1,276.4 -12.5,52.7 -54.5,93 -97.7,125.6 -114.6,86.7 -252.3,142.5 -394.9,160.1 240.8,129.1 458.6,300.9 640.2,505 43.3,48.7 85.5,100.8 105.3,162.8 34.7,108.7 -7.3,231.1 -83.4,316.1 -76,85.1 -181.4,138.1 -288.2,178.3 -322.9,121.6 -683.2,141.6 -1017.6,56.4 100.5,59.6 203.4,121.1 276.6,212.3 73.2,91.1 111.6,219.6 66,327.3 -67.9,160 -275.1,200.3 -448.9,197.1 -542.85,-10 -1079.03,-232.3 -1469.69,-609.4 62.27,94.3 155.23,164.1 224.48,253.4 69.24,89.3 112.93,215.5 58.39,314.5 -66.62,120.9 -236.07,133.1 -371.25,105.4 -527.16,-108.3 -906.83,-564.3 -1191.5,-1021 -176.77,-283.6 -316.72,-610.7 -356.64,-942.5 -32.55,91.4 -82.48,197.5 -178.71,209.8 -84.46,10.8 -156.91,-59.6 -203.19,-131 -83.97,-129.7 -129.6,-280.6 -159.29,-432.2 -60.76,-310.3 -58.59,-630.5 -19.73,-944.3 3.34,-27 6.98,-54 10.98,-81 -53.41,-103.7 -78.46,-223.5 -77.44,-340.7 1.62,-182.8 60.79,-360.7 138.69,-526.1 77.9,-165.4 180.29,-327 334.31,-425.5 74.65,-47.7 163.69,-77.1 252.21,-82.1 4.47,-0.2 8.94,-0.4 13.41,-0.5 -100.87,-316.4 -253.69,-838.4 -317.16,-1277.7 l -699.12,259.6 -579.99,215.4 c -561.51,195.4 -1015.73,30.3 -1379.6,-314.4 l 278.37,759.5 948.22,3.5 -0.44,119.7 -1026.1,-3.8 0.01,-3.1 -3.33,1.2 -374.42,-1021.6 -598.06,219.2 -163.18,-86.2 -170.61,62.5 -147.07,-77.7 -62.91,23.1 c -23.78,8.7 -50.38,-3.7 -59.1,-27.4 -8.73,-23.9 3.6,-50.5 27.4,-59.2 l 43.52,-15.9 -264.72,-865.6 c -28.42,154.4 -100.35,306.2 -233.33,386.5 -147.07,88.7 -375.6,45.7 -437.23,-114.6 -40.41,-105.2 -2.46,-222 27.46,-330.6 51.71,-187.8 78.42,-382.4 80.05,-577.2 0.04,-4.6 -0.16,-10 -0.53,-16.1 -8.68,-24.6 -16.7,-49.2 -24.13,-73.7 -24.94,-81.9 -47.32,-164.8 -66.88,-248.4 l -3.57,-0.7 0.55,-12.3 c -37.08,-160.8 -63.65,-324.1 -77.7,-488.4 -21.77,-254.5 -5.55,-507 -56.41,-759.2 -1.26,-6.2 -2.54,-12.5 -3.81,-18.7 -8.22,-40.4 -15.91,-81.3 -12.17,-122.2 3.34,-36.6 17.72,-74.1 43.62,-99.3 1.81,-1.7 3.69,-3.4 5.6,-5.1 l -3.18,-10.4 -153.99,-503.5 -58.1,-158.4 368.24,-135 50.31,-18.4 9.86,-223.5 34.95,-791.2 h 2224.89 -0.01 6742.97 v 0 h 5577.1 v 0.1 l 1912.3,4713.4 h -7115.1"
         style="fill:#f25376;fill-opacity:1;fill-rule:nonzero;stroke:none"
         id="path16" />
      <path
         d="m 11557.6,9795.3 c -152.1,145.7 -549.8,142.3 -1007.8,74.5 -460.7,-68 -982.4,-201.1 -1375.6,-312.7 l -3.93,-122.6 C 8010.38,8662.7 7147.1,9571.8 7147.1,9571.8 c 2.28,96.2 12.64,202.5 28.77,314.1 l -699.12,259.6 -579.99,215.4 c -561.51,195.4 -1015.73,30.3 -1379.6,-314.4 l -67.76,-184.9 602.66,-220.8 68.82,-171.3 170.59,-62.5 62.04,-154.4 62.89,-23 c 23.8,-8.8 36.12,-35.4 27.4,-59.1 -8.72,-23.8 -35.32,-36.2 -59.12,-27.4 l -7.33,2.6 -30.21,-70.4 -1070.66,-2491.9 753.2,-215.7 -370.44,-1613.4 h -0.01 1765.9 0.01 -1176.44 v 306.6 h 4373.67 l 1120.13,2760.7 c -116.5,320.5 -255.3,632.2 -415.5,933.6 -30.7,57.9 57.2,109.2 87.9,51.4 49.6,-93.3 97.1,-187.5 142.7,-282.8 14.5,106.1 21.7,213.1 21.9,320.4 0.1,65.5 101.8,65.4 101.7,0 -0.3,-162.2 -16.7,-324.1 -48.2,-483.2 59.2,-131.7 114.6,-265.2 166,-400.1 l 611.4,1506.9 h 366.1 c -75.9,146.6 -150,261.3 -218.9,327.5"
         style="fill:#3e94cc;fill-opacity:1;fill-rule:nonzero;stroke:none"
         id="path18" />
      <path
         d="m 2180.66,6599.8 c 0.8,-5.2 1.62,-10.3 2.42,-15.5 l 3.18,10.4 c -1.91,1.7 -3.79,3.4 -5.6,5.1"
         style="fill:#444a8a;fill-opacity:1;fill-rule:nonzero;stroke:none"
         id="path20" />
      <path
         d="m 2339.23,5787.4 c 16.95,-71.5 34.65,-142.9 53.09,-214.1 2.4,-9.2 4.75,-18.4 7.08,-27.8 l -9.86,223.5 -50.31,18.4"
         style="fill:#444a8a;fill-opacity:1;fill-rule:nonzero;stroke:none"
         id="path22" />
      <path
         d="m 7493.03,11163.6 c -4.47,0.1 -8.94,0.3 -13.41,0.5 -364.61,-308.8 -698.92,-646.1 -995.98,-1010 -2.3,-2.9 -4.59,-5.7 -6.89,-8.6 l 699.12,-259.6 c 63.47,439.3 216.29,961.3 317.16,1277.7"
         style="fill:#50579f;fill-opacity:1;fill-rule:nonzero;stroke:none"
         id="path24" />
      <path
         d="m 9174.2,9557.1 -3.93,-122.6 C 8010.38,8662.7 7147.1,9571.8 7147.1,9571.8 c 2.28,96.2 12.64,202.5 28.77,314.1 l -699.12,259.6 -579.99,215.4 c -561.51,195.4 -1015.73,30.3 -1379.6,-314.4 l -67.76,-184.9 602.66,-220.8 68.82,-171.3 170.59,-62.5 62.04,-154.4 62.89,-23 c 23.8,-8.8 36.12,-35.4 27.4,-59.1 -8.72,-23.8 -35.32,-36.2 -59.12,-27.4 l -7.33,2.6 -30.21,-70.4 -1070.66,-2491.9 753.2,-215.7 -370.44,-1613.4 h -0.01 1765.9 0.01 -1176.44 v 306.6 h 1233.72 c 153.39,712.6 442.43,1397.4 833.4,2013.7 583.95,920.2 1389.56,1690.4 2300.18,2288.8 294.32,193.6 607.3,371.3 933.8,506.4 -460.7,-68 -982.4,-201.1 -1375.6,-312.7"
         style="fill:#3871c1;fill-opacity:1;fill-rule:nonzero;stroke:none"
         id="path26" />
      <path
         d="m 11029,4754.3 v 0 h 373.2 v 0 H 11029"
         style="fill:#3871c1;fill-opacity:1;fill-rule:nonzero;stroke:none"
         id="path28" />
      <path
         d="m 6425.14,4754.3 h -0.01 4603.87 v 0 H 6425.14"
         style="fill:#3e94cc;fill-opacity:1;fill-rule:nonzero;stroke:none"
         id="path30" />
      <path
         d="m 7192.11,12816 c 27.61,5.1 55.55,7.7 83.36,7.7 -28.22,3.8 -56.99,1.8 -83.36,-7.7"
         style="fill:#2f0d1e;fill-opacity:1;fill-rule:nonzero;stroke:none"
         id="path32" />
      <path
         d="m 6948.22,12693.9 c 63.53,59.2 144.48,100.8 229.37,119.2 36.49,61.1 75.65,120.7 117.35,178.3 30.67,42.5 68.74,105.4 123.85,117.4 27.84,6 56.79,2.3 85.04,-1.4 156.98,-20.8 313.96,-41.5 470.94,-62.3 16.07,-2.1 32.14,-4.3 48.22,-6.4 6.49,15.1 13.08,30.2 19.77,45.3 38.26,24.9 75.23,52 111.08,80 153.37,119.7 292.4,257.8 413.1,410.4 68.65,86.8 133.5,205.7 78.54,301.8 122.22,-89.7 244.45,-179.3 366.67,-268.9 92.52,-67.8 202.72,-139.4 313.47,-109.5 122.24,33 181.77,182 159.56,306.6 -22.21,124.7 -103.51,229.4 -182.22,328.6 267.41,-154.3 494.81,-377.3 654.33,-641.6 14.85,-24.6 30.44,-50.8 56.01,-63.9 36.4,-18.5 81.1,-4.3 115.7,17.3 143.3,89.6 178.1,312.9 68.9,441.9 163.1,-193.2 334.6,-392.7 566.3,-493.8 20.9,-9.1 43.4,-17.4 65.9,-20.3 17.8,-50 33.9,-101.1 48.4,-152.9 2.4,-8.6 4.8,-17.2 7.1,-25.8 0.2,-1 0.5,-2 0.8,-3 2.2,-8.5 4.5,-17 6.6,-25.6 0.2,-0.7 0.4,-1.5 0.6,-2.2 2,-7.9 4,-15.8 5.9,-23.7 0.3,-1.3 0.6,-2.5 0.9,-3.8 2,-8 3.9,-16 5.7,-24.1 0.5,-2 1,-4 1.4,-6.1 1.6,-6.5 3,-13.1 4.5,-19.7 0.8,-3.5 1.5,-7 2.3,-10.4 1.1,-5.4 2.3,-10.7 3.4,-16.1 0.9,-4.2 1.8,-8.3 2.7,-12.5 0.5,-2.7 1.1,-5.4 1.6,-8.2 0.8,-4.1 1.7,-8.2 2.5,-12.4 -3.8,8.2 -10.2,15.7 -19.9,21.6 -163.7,99.1 -367.3,108.3 -541.2,31.2 -25.1,-11.2 -31,-47.8 -18.3,-69.6 15.2,-25.9 44.5,-29.5 69.7,-18.3 140.1,62.2 308.1,47.7 438.4,-31.2 38.2,-23.1 74.2,10.3 75.5,44.7 10.1,-52.9 18.7,-106.3 26,-160.3 67.5,77.1 140.6,149.2 218.4,215.9 105.7,90.5 220.2,170.8 341.4,239.3 109.9,62 245.3,153.6 216.1,276.4 -12.5,52.7 -54.5,93 -97.7,125.6 -114.6,86.7 -252.3,142.5 -394.9,160.1 240.8,129.1 458.6,300.9 640.2,505 43.3,48.7 85.5,100.8 105.3,162.8 34.7,108.7 -7.3,231.1 -83.4,316.1 -76,85.1 -181.4,138.1 -288.2,178.3 -322.9,121.6 -683.2,141.6 -1017.6,56.4 100.5,59.6 203.4,121.1 276.6,212.3 73.2,91.1 111.6,219.6 66,327.3 -67.9,160 -275.1,200.3 -448.9,197.1 -542.85,-10 -1079.03,-232.3 -1469.69,-609.4 62.27,94.3 155.23,164.1 224.48,253.4 69.24,89.3 112.93,215.5 58.39,314.5 -66.62,120.9 -236.07,133.1 -371.25,105.4 -527.16,-108.3 -906.83,-564.3 -1191.5,-1021 -176.77,-283.6 -316.72,-610.7 -356.64,-942.5 -32.55,91.4 -82.48,197.5 -178.71,209.8 -84.46,10.8 -156.91,-59.6 -203.19,-131 -83.97,-129.7 -129.6,-280.6 -159.29,-432.2 -60.76,-310.3 -58.59,-630.5 -19.73,-944.3 3.34,-27 6.98,-54 10.98,-81 29.82,57.9 68.47,110.8 116.37,155.4"
         style="fill:#2f0d1e;fill-opacity:1;fill-rule:nonzero;stroke:none"
         id="path34" />
      <path
         d="m 10962.6,12780.1 c 0.3,-2.6 0.6,-5.2 0.8,-7.8 -0.2,2.6 -0.5,5.2 -0.8,7.8"
         style="fill:#f25376;fill-opacity:1;fill-rule:nonzero;stroke:none"
         id="path36" />
      <path
         d="m 10771.6,10956.7 c -2,-6.4 -3.9,-12.8 -5.8,-19.1 1.9,6.3 3.8,12.7 5.8,19.1"
         style="fill:#f25376;fill-opacity:1;fill-rule:nonzero;stroke:none"
         id="path38" />
      <path
         d="m 10776.9,10974.6 c -1,-3.3 -2,-6.6 -2.9,-9.8 0.9,3.2 1.9,6.5 2.9,9.8"
         style="fill:#f25376;fill-opacity:1;fill-rule:nonzero;stroke:none"
         id="path40" />
      <path
         d="m 10907.5,13105.4 c 1.6,-6.5 3,-13.1 4.5,-19.7 -1.5,6.6 -2.9,13.2 -4.5,19.7"
         style="fill:#f25376;fill-opacity:1;fill-rule:nonzero;stroke:none"
         id="path42" />
      <path
         d="m 10914.3,13075.3 c 1.1,-5.4 2.3,-10.7 3.4,-16.1 -1.1,5.4 -2.3,10.7 -3.4,16.1"
         style="fill:#f25376;fill-opacity:1;fill-rule:nonzero;stroke:none"
         id="path44" />
      <path
         d="m 10920.4,13046.7 c 0.5,-2.7 1.1,-5.4 1.6,-8.2 -0.5,2.8 -1.1,5.5 -1.6,8.2"
         style="fill:#f25376;fill-opacity:1;fill-rule:nonzero;stroke:none"
         id="path46" />
      <path
         d="m 10900.4,13135.6 c 2,-8 3.9,-16 5.7,-24.1 -1.8,8.1 -3.7,16.1 -5.7,24.1"
         style="fill:#f25376;fill-opacity:1;fill-rule:nonzero;stroke:none"
         id="path48" />
      <path
         d="m 10878.5,13219.7 c 2.4,-8.6 4.8,-17.2 7.1,-25.8 -2.3,8.6 -4.7,17.2 -7.1,25.8"
         style="fill:#f25376;fill-opacity:1;fill-rule:nonzero;stroke:none"
         id="path50" />
      <path
         d="m 10886.4,13190.9 c 2.2,-8.5 4.5,-17 6.6,-25.6 -2.1,8.6 -4.4,17.1 -6.6,25.6"
         style="fill:#f25376;fill-opacity:1;fill-rule:nonzero;stroke:none"
         id="path52" />
      <path
         d="m 10893.6,13163.1 c 2,-7.9 4,-15.8 5.9,-23.7 -1.9,7.9 -3.9,15.8 -5.9,23.7"
         style="fill:#f25376;fill-opacity:1;fill-rule:nonzero;stroke:none"
         id="path54" />
      <path
         d="m 10928.7,13004.5 c -1.3,-34.4 -37.3,-67.8 -75.5,-44.7 -130.3,78.9 -298.3,93.4 -438.4,31.2 -25.2,-11.2 -54.5,-7.6 -69.7,18.3 -12.7,21.8 -6.8,58.4 18.3,69.6 173.9,77.1 377.5,67.9 541.2,-31.2 9.7,-5.9 16.1,-13.4 19.9,-21.6 -0.8,4.2 -1.7,8.3 -2.5,12.4 -0.5,2.8 -1.1,5.5 -1.6,8.2 -0.9,4.2 -1.8,8.3 -2.7,12.5 -1.1,5.4 -2.3,10.7 -3.4,16.1 -0.8,3.4 -1.5,6.9 -2.3,10.4 -1.5,6.6 -2.9,13.2 -4.5,19.7 -0.4,2.1 -0.9,4.1 -1.4,6.1 -1.8,8.1 -3.7,16.1 -5.7,24.1 -0.3,1.3 -0.6,2.5 -0.9,3.8 -1.9,7.9 -3.9,15.8 -5.9,23.7 -0.2,0.7 -0.4,1.5 -0.6,2.2 -2.1,8.6 -4.4,17.1 -6.6,25.6 -0.3,1 -0.6,2 -0.8,3 -2.3,8.6 -4.7,17.2 -7.1,25.8 -171.8,83.6 -365.5,112.7 -556.2,129 -193.8,16.5 -389.18,20.6 -583.17,4.5 -58.31,-4.7 -307.08,-14.8 -414.23,-70.4 81.38,-16.4 160.53,-43.5 235.38,-80.6 58.76,-29 7.14,-116.8 -51.35,-87.8 -69.92,34.6 -144.34,58.7 -220.77,72.1 14.53,-22.6 38.3,-39.5 61.82,-53.6 99.32,-59.4 212.49,-91.6 325.45,-116.8 231.62,-51.3 467.97,-75.3 702.97,-105.2 208.1,-26.3 401,-47.7 585.8,-145.5 0,-0.1 0,-0.1 0,-0.1 -0.2,2.4 -0.5,4.7 -0.8,7 -0.2,2.6 -0.5,5.2 -0.8,7.8 -2.5,21.4 -5.1,42.8 -7.9,64.1 -7.3,54 -15.9,107.4 -26,160.3"
         style="fill:#f5748b;fill-opacity:1;fill-rule:nonzero;stroke:none"
         id="path56" />
      <path
         d="m 10124.7,11824.7 c -18.7,67 -34.8,135.1 -55.6,201.2 -9.8,31.3 -20.1,63.5 -41.7,88.3 -8.8,10.1 -18.7,18.4 -29.24,24.9 46.44,-103 88.94,-207.8 126.54,-314.4"
         style="fill:#f5748b;fill-opacity:1;fill-rule:nonzero;stroke:none"
         id="path58" />
      <path
         d="m 10813.9,11435.1 c -31.5,-1 -58.1,11.8 -89.4,14.2 -139.1,10.3 -284.9,16 -414.5,75.5 -66.1,30.4 -108.2,91.3 -136.9,156.3 26.1,-83 47.9,-167.6 56.1,-253.6 11,-114.9 -24.6,-210.4 -134.3,-260 -111.04,-50.2 -234.01,-43.3 -344.36,3.8 -60.1,25.7 -8.19,113.3 51.37,87.9 85.76,-36.6 204.79,-38.8 282.89,18.7 77.6,57.2 41.4,182.1 22,260.5 -50.7,204.9 -129.12,405.3 -218.1,596.4 -1.25,2.7 -2.25,5.4 -3.05,8 -13.91,-7.9 -26.43,-19.3 -36.48,-34.1 -53.57,-79.2 -85.02,-170.7 -123.34,-258.3 -29.13,-66.6 -63.38,-132.8 -113.03,-186.7 -52.98,-57.5 -134.54,-52.4 -210.52,-50.1 -461.56,13.7 -940.76,57.1 -1299.85,365.8 -5.86,-26.5 -11.28,-53.1 -16.21,-79.9 -43.56,-235.9 -59.03,-476.9 -45.6,-716.2 20.24,-363.7 109.38,-728.4 294.6,-1041.5 218.78,-142.8 470.85,-236.5 739.42,-266.5 40.13,-4.5 55.48,-45.7 45.66,-74.4 20.59,-1.3 41.13,-2.4 61.59,-3.2 85.83,-3.5 170.4,-3 252.35,1.3 348.06,18.1 701.76,138.8 943.36,389.8 197.1,204.3 305.3,477.3 388.2,748.8 1.9,6.3 3.8,12.7 5.8,19.1 0.8,2.7 1.6,5.4 2.4,8.1 0.9,3.2 1.9,6.5 2.9,9.8 42.8,144.7 81.5,300.8 113.7,463.8 -25.6,-1.6 -51.2,-2.5 -76.7,-3.3"
         style="fill:#f5748b;fill-opacity:1;fill-rule:nonzero;stroke:none"
         id="path60" />
      <path
         d="m 8486.36,9925.8 c 46.63,-16.5 94.06,-31.3 142.03,-44.5 -55.87,21.2 -110.51,45.1 -163.73,71.5 7.15,-9.1 14.36,-18.1 21.7,-27"
         style="fill:#f5748b;fill-opacity:1;fill-rule:nonzero;stroke:none"
         id="path62" />
      <path
         d="m 10106.8,11538.4 c 19.4,-78.4 55.6,-203.3 -22,-260.5 -78.1,-57.5 -197.13,-55.3 -282.89,-18.7 -59.56,25.4 -111.47,-62.2 -51.37,-87.9 110.35,-47.1 233.32,-54 344.36,-3.8 109.7,49.6 145.3,145.1 134.3,260 -8.2,86 -30,170.6 -56.1,253.6 -5.6,12.7 -10.7,25.6 -15.4,38.5 -12.5,34.4 -23.1,69.6 -33,105.1 -37.6,106.6 -80.1,211.4 -126.54,314.4 -35.44,21.9 -78.22,23.3 -112.51,3.7 0.8,-2.6 1.8,-5.3 3.05,-8 88.98,-191.1 167.4,-391.5 218.1,-596.4"
         style="fill:#2f0d1e;fill-opacity:1;fill-rule:nonzero;stroke:none"
         id="path64" />
      <path
         d="m 10680,11710.6 c 182.3,237.4 270.7,488.7 509.6,701.5 -238.9,-212.8 -327.3,-464.1 -509.6,-701.5"
         style="fill:#f5eae5;fill-opacity:1;fill-rule:nonzero;stroke:none"
         id="path66" />
      <path
         d="m 11449.6,12544.8 c -24.3,47 -76.1,73.6 -127.4,86.7 -114.7,29.1 -232.3,35.5 -349.5,45.6 -37.7,3.2 -75.3,6.8 -112.7,11.7 -132.6,17.2 -265.9,27.9 -398.7,43 -263.8,30 -527.57,60 -791.35,90 -130.06,14.8 -259.99,30.7 -389.91,47.2 -419.38,53.4 -838.14,113.9 -1257.05,169.7 -16.08,2.1 -32.15,4.3 -48.22,6.4 -156.98,20.8 -313.96,41.5 -470.94,62.3 -28.25,3.7 -57.2,7.4 -85.04,1.4 -55.11,-12 -93.18,-74.9 -123.85,-117.4 -41.7,-57.6 -80.86,-117.2 -117.35,-178.3 -0.92,-1.5 -1.86,-3.1 -2.77,-4.6 5.62,2.9 11.4,5.4 17.29,7.5 26.37,9.5 55.14,11.5 83.36,7.7 17.99,-2.4 35.75,-7.2 52.53,-13.8 48.96,-19.3 90.87,-53 129.79,-88.4 179.09,-163.1 310.08,-371 465.47,-556.7 35.21,-42.1 71.95,-83 110.68,-121.8 22.29,-22.4 45.14,-43.6 68.49,-63.6 359.09,-308.7 838.29,-352.1 1299.85,-365.8 75.98,-2.3 157.54,-7.4 210.52,50.1 49.65,53.9 83.9,120.1 113.03,186.7 38.32,87.6 69.77,179.1 123.34,258.3 10.05,14.8 22.57,26.2 36.48,34.1 34.29,19.6 77.07,18.2 112.51,-3.7 10.54,-6.5 20.44,-14.8 29.24,-24.9 21.6,-24.8 31.9,-57 41.7,-88.3 20.8,-66.1 36.9,-134.2 55.6,-201.2 9.9,-35.5 20.5,-70.7 33,-105.1 4.7,-12.9 9.8,-25.8 15.4,-38.5 28.7,-65 70.8,-125.9 136.9,-156.3 129.6,-59.5 275.4,-65.2 414.5,-75.5 31.3,-2.4 57.9,-15.2 89.4,-14.2 25.5,0.8 51.1,1.7 76.7,3.3 59,4 117.5,12.5 171.6,35.6 88.1,37.6 156.9,111.7 204.1,195.1 47.1,83.3 74.6,176.3 98.8,269 39.3,150.9 70.7,303.8 94,457.9 7.6,50 13.8,103.9 -9.5,148.8"
         style="fill:#f5eae5;fill-opacity:1;fill-rule:nonzero;stroke:none"
         id="path68" />
      <path
         d="m 11309.8,12385.6 c -16.3,11.3 -36.6,14.6 -56.2,17.4 l -1.1,0.1 c -21,3 -42,6 -62.9,9 -323.6,45.6 -450.1,36.9 -775.9,44.6 -107.8,2.6 -134.3,-45.8 -149.5,-154.8 -23.4,-167.7 -29.9,-337.6 -19.4,-506.6 2.1,-33.9 5.9,-70.4 28.1,-96.2 18.6,-21.5 46.7,-31.7 73.7,-40.6 77.2,-25.2 155.8,-46.2 235.3,-63 11,11.6 129.9,-12.6 151.7,-13 75.7,-1.2 151.4,-2.6 227.1,-4 34.8,-0.6 70.6,-1 103.3,10.9 20.9,7.7 39.7,20.1 57.1,33.8 63.9,50.2 108.3,110.6 131.3,187.6 17.6,59.3 30.6,120.9 45.8,179 26.6,101.8 47.9,206.3 47.3,312.1 -0.1,31.5 -9.7,65.7 -35.7,83.7"
         style="fill:#ce3b56;fill-opacity:1;fill-rule:nonzero;stroke:none"
         id="path70" />
      <path
         d="m 9673.85,12550.9 c -17.56,11.8 -40.73,21 -70.97,26.7 -8.95,1.7 -17.97,3.3 -26.96,4.9 -263.07,49.2 -527.91,89 -793.85,119.1 -88.53,10 -288.96,70.3 -358.34,3.3 -63.39,-61.3 -46.87,-178.4 -52.16,-258 -8.28,-124.2 -7.58,-249.1 2.19,-373.2 2.61,-33.3 6.09,-67.2 20.22,-97.3 30.96,-66 104.6,-99 173.42,-123 10.97,-3.8 22,-7.4 33.01,-11.1 129.6,-42.9 263.24,-74.3 399.07,-88.8 136.35,-14.6 302.81,-25.2 437.97,0.7 37.06,7.1 73.55,24.1 96.98,53.6 17.64,22.3 26.75,49.9 35.52,76.9 46.19,141.9 113.45,287.3 138.54,433.3 16.39,95.5 35.01,185.9 -34.64,232.9"
         style="fill:#3e94cc;fill-opacity:1;fill-rule:nonzero;stroke:none"
         id="path72" />
      <path
         d="m 10638.6,11659.1 c 7.2,8.5 14.2,17.1 21.1,25.7 -6.9,-8.6 -13.9,-17.2 -21.1,-25.7"
         style="fill:#f5eae5;fill-opacity:1;fill-rule:nonzero;stroke:none"
         id="path74" />
      <path
         d="m 9708.49,12318 c 16.39,95.5 35.01,185.9 -34.64,232.9 -17.56,11.8 -40.73,21 -70.97,26.7 -8.95,1.7 -17.97,3.3 -26.96,4.9 -333.39,-235.2 -656.54,-484.3 -975.51,-740.2 129.6,-42.9 263.24,-74.3 399.07,-88.8 136.35,-14.6 302.81,-25.2 437.97,0.7 37.06,7.1 73.55,24.1 96.98,53.6 17.64,22.3 26.75,49.9 35.52,76.9 46.19,141.9 113.45,287.3 138.54,433.3"
         style="fill:#3871c1;fill-opacity:1;fill-rule:nonzero;stroke:none"
         id="path76" />
      <path
         d="m 10680,11710.6 c -6.7,-8.6 -13.4,-17.2 -20.3,-25.8 -6.9,-8.6 -13.9,-17.2 -21.1,-25.7 -17.9,-21.4 -36.8,-42.6 -56.7,-63.6 11,11.6 129.9,-12.6 151.7,-13 75.7,-1.2 151.4,-2.6 227.1,-4 34.8,-0.6 70.6,-1 103.3,10.9 20.9,7.7 39.7,20.1 57.1,33.8 63.9,50.2 108.3,110.6 131.3,187.6 17.6,59.3 30.6,120.9 45.8,179 26.6,101.8 47.9,206.3 47.3,312.1 -0.1,31.5 -9.7,65.7 -35.7,83.7 -16.3,11.3 -36.6,14.6 -56.2,17.4 l -1.1,0.1 c -21,3 -42,6 -62.9,9 -238.9,-212.8 -327.3,-464.1 -509.6,-701.5"
         style="fill:#9e273d;fill-opacity:1;fill-rule:nonzero;stroke:none"
         id="path78" />
      <path
         d="m 8496.42,11982.7 c -1.88,212 6.55,423.9 25.24,635.1 2.84,32.2 -47.43,32 -50.25,0 -18.7,-211.2 -27.12,-423.1 -25.25,-635.1 0.3,-32.3 50.55,-32.4 50.26,0"
         style="fill:#58c8dc;fill-opacity:1;fill-rule:nonzero;stroke:none"
         id="path80" />
      <path
         d="m 10394.8,12373.1 c 5.6,31.6 -42.8,45.2 -48.5,13.4 -37.4,-209.8 -55.8,-422.3 -54.6,-635.4 0.1,-32.3 50.4,-32.4 50.2,0 -1.2,208.6 16.3,416.7 52.9,622"
         style="fill:#f24e67;fill-opacity:1;fill-rule:nonzero;stroke:none"
         id="path82" />
      <path
         d="m 9618.55,11008.8 c 2.35,-0.6 4.71,-1.1 7.07,-1.7 -2.36,0.6 -4.72,1.1 -7.07,1.7"
         style="fill:#2f0d1e;fill-opacity:1;fill-rule:nonzero;stroke:none"
         id="path84" />
      <path
         d="m 9597.28,11014.2 c 2.62,-0.7 5.25,-1.4 7.88,-2 -2.63,0.6 -5.27,1.3 -7.88,2"
         style="fill:#2f0d1e;fill-opacity:1;fill-rule:nonzero;stroke:none"
         id="path86" />
      <path
         d="m 9563.75,11023.6 c -3.03,0.9 -6.06,1.8 -9.08,2.7 0.54,-0.2 1.09,-0.4 1.64,-0.5 2.47,-0.8 4.96,-1.5 7.44,-2.2"
         style="fill:#2f0d1e;fill-opacity:1;fill-rule:nonzero;stroke:none"
         id="path88" />
      <path
         d="m 9640.02,11003.8 c 2.18,-0.5 4.36,-0.9 6.54,-1.4 -2.18,0.5 -4.36,0.9 -6.54,1.4"
         style="fill:#2f0d1e;fill-opacity:1;fill-rule:nonzero;stroke:none"
         id="path90" />
      <path
         d="m 9533.96,11032.8 c 5.98,-1.9 11.98,-3.8 18,-5.7 -6.02,1.9 -12.02,3.8 -18,5.7"
         style="fill:#2f0d1e;fill-opacity:1;fill-rule:nonzero;stroke:none"
         id="path92" />
      <path
         d="m 9492.25,11047.4 c 6.29,-2.4 12.61,-4.6 18.95,-6.9 -6.34,2.3 -12.66,4.5 -18.95,6.9"
         style="fill:#2f0d1e;fill-opacity:1;fill-rule:nonzero;stroke:none"
         id="path94" />
      <path
         d="m 9513.07,11039.9 c 6.04,-2.1 12.12,-4.2 18.19,-6.2 -6.08,2 -12.15,4.1 -18.19,6.2"
         style="fill:#2f0d1e;fill-opacity:1;fill-rule:nonzero;stroke:none"
         id="path96" />
      <path
         d="m 9576.21,11019.9 c 2.67,-0.7 5.33,-1.4 8.01,-2.2 -2.68,0.8 -5.34,1.5 -8.01,2.2"
         style="fill:#2f0d1e;fill-opacity:1;fill-rule:nonzero;stroke:none"
         id="path98" />
      <path
         d="m 9735.1,10986.9 c -3.23,0.4 -6.48,0.9 -9.72,1.3 0.65,-0.1 1.29,-0.2 1.94,-0.3 2.59,-0.3 5.18,-0.6 7.78,-1"
         style="fill:#2f0d1e;fill-opacity:1;fill-rule:nonzero;stroke:none"
         id="path100" />
      <path
         d="m 9769.36,10982.8 c 3.03,-0.4 6.08,-0.7 9.13,-1 -3.05,0.3 -6.1,0.6 -9.13,1"
         style="fill:#2f0d1e;fill-opacity:1;fill-rule:nonzero;stroke:none"
         id="path102" />
      <path
         d="m 9818.02,10978.7 c -1.92,0.1 -3.83,0.2 -5.74,0.3 1,-0.1 2.01,-0.2 3,-0.2 0.91,-0.1 1.82,-0.1 2.74,-0.1"
         style="fill:#2f0d1e;fill-opacity:1;fill-rule:nonzero;stroke:none"
         id="path104" />
      <path
         d="m 9790.97,10980.7 c 3.86,-0.4 7.73,-0.7 11.6,-1 -3.87,0.3 -7.75,0.6 -11.6,1"
         style="fill:#2f0d1e;fill-opacity:1;fill-rule:nonzero;stroke:none"
         id="path106" />
      <path
         d="m 9640.45,10764.8 c -49.83,-1.1 -99.78,1.2 -149.31,7 -95.1,11 -188.76,34.4 -277.7,69.9 -98,39.1 -192.38,94.2 -258.47,176.5 -37.33,46.5 -64.33,102.1 -75.56,160.8 -5.55,29 -7.26,58.8 -4.14,88.1 0.64,5.9 9.11,67.3 15.15,68.2 -92.01,-12.2 -172.39,-80.8 -211.88,-165.4 -42.56,-90.8 -43.56,-196.7 -22.19,-294.6 8.54,-39.5 20.96,-78.3 36.63,-115.6 l 12.21,2.1 c 78.36,16.2 158.97,24.2 238.75,15.4 142.26,-15.4 276,-84.4 379.19,-183.3 73.29,-70.7 131.69,-155.8 174.84,-248.1 50.27,9.3 99.95,25.4 115.81,68.7 24.84,67.6 -0.2,174.7 16.71,249.6 7.72,33.8 18.92,67.3 34.18,98.7 0.27,0.6 0.56,1.1 0.84,1.7 -8.37,0.3 -16.73,0.5 -25.06,0.3"
         style="fill:#2f0d1e;fill-opacity:1;fill-rule:nonzero;stroke:none"
         id="path108" />
      <path
         d="m 9238.46,11180.2 c 78.16,-54.6 163.51,-99.2 252.95,-132.5 -88.13,32.8 -172.75,76.9 -252.95,132.5"
         style="fill:#2f0d1e;fill-opacity:1;fill-rule:nonzero;stroke:none"
         id="path110" />
      <path
         d="m 9747.37,10985.3 c 2.98,-0.4 5.96,-0.7 8.94,-1.1 -2.98,0.4 -5.96,0.7 -8.94,1.1"
         style="fill:#2f0d1e;fill-opacity:1;fill-rule:nonzero;stroke:none"
         id="path112" />
      <path
         d="m 9682.72,10995.2 c 2.55,-0.5 5.09,-0.9 7.64,-1.4 -2.55,0.5 -5.1,0.9 -7.64,1.4"
         style="fill:#2f0d1e;fill-opacity:1;fill-rule:nonzero;stroke:none"
         id="path114" />
      <path
         d="m 9704.02,10991.5 c 3.07,-0.5 6.13,-1 9.18,-1.4 -3.05,0.4 -6.11,0.9 -9.18,1.4"
         style="fill:#2f0d1e;fill-opacity:1;fill-rule:nonzero;stroke:none"
         id="path116" />
      <path
         d="m 9661.29,10999.3 c 2.36,-0.5 4.74,-0.9 7.1,-1.4 -2.36,0.5 -4.74,0.9 -7.1,1.4"
         style="fill:#2f0d1e;fill-opacity:1;fill-rule:nonzero;stroke:none"
         id="path118" />
      <path
         d="m 9818.02,10978.7 c -0.92,0 -1.83,0 -2.74,0.1 -0.99,0 -2,0.1 -3,0.2 -3.24,0.2 -6.47,0.5 -9.71,0.7 -3.87,0.3 -7.74,0.6 -11.6,1 -4.16,0.3 -8.32,0.7 -12.48,1.1 -3.05,0.3 -6.1,0.6 -9.13,1 -4.36,0.4 -8.71,0.9 -13.05,1.4 -2.98,0.4 -5.96,0.7 -8.94,1.1 -4.09,0.5 -8.18,1 -12.27,1.6 -2.6,0.4 -5.19,0.7 -7.78,1 -0.65,0.1 -1.29,0.2 -1.94,0.3 -4.06,0.6 -8.11,1.3 -12.18,1.9 -3.05,0.4 -6.11,0.9 -9.18,1.4 -4.56,0.8 -9.11,1.5 -13.66,2.3 -2.55,0.5 -5.09,0.9 -7.64,1.4 -4.78,0.9 -9.56,1.8 -14.33,2.7 -2.36,0.5 -4.74,0.9 -7.1,1.4 -4.91,1 -9.83,2 -14.73,3.1 -2.18,0.5 -4.36,0.9 -6.54,1.4 -4.81,1.1 -9.61,2.2 -14.4,3.3 -2.36,0.6 -4.72,1.1 -7.07,1.7 -4.48,1.1 -8.93,2.2 -13.39,3.4 -2.63,0.6 -5.26,1.3 -7.88,2 -4.36,1.1 -8.72,2.3 -13.06,3.5 -2.68,0.8 -5.34,1.5 -8.01,2.2 -4.16,1.2 -8.31,2.5 -12.46,3.7 -2.48,0.7 -4.97,1.4 -7.44,2.2 -0.55,0.1 -1.1,0.3 -1.64,0.5 -0.91,0.2 -1.81,0.5 -2.71,0.8 -6.02,1.9 -12.02,3.8 -18,5.7 -0.9,0.3 -1.8,0.6 -2.7,0.9 -6.07,2 -12.15,4.1 -18.19,6.2 -0.63,0.2 -1.24,0.4 -1.87,0.6 -6.34,2.3 -12.66,4.5 -18.95,6.9 -0.29,0.1 -0.56,0.2 -0.84,0.3 -89.44,33.3 -174.79,77.9 -252.95,132.5 -101.37,70.9 -204.55,162.1 -328.11,157 -6.7,-0.2 -13.23,-0.8 -19.93,-1.9 -6.04,-0.9 -14.51,-62.3 -15.15,-68.2 -3.12,-29.3 -1.41,-59.1 4.14,-88.1 11.23,-58.7 38.23,-114.3 75.56,-160.8 66.09,-82.3 160.47,-137.4 258.47,-176.5 88.94,-35.5 182.6,-58.9 277.7,-69.9 49.53,-5.8 99.48,-8.1 149.31,-7 8.33,0.2 16.69,0 25.06,-0.3 34.4,-1.2 68.94,-4.2 101.77,9.1 88.49,35.9 139.77,113.8 147.86,209 -5.45,0.9 -10.94,1.4 -16.45,1.5 -26.6,0.6 -53.67,-6.7 -80.67,-5.4"
         style="fill:#f5eae5;fill-opacity:1;fill-rule:nonzero;stroke:none"
         id="path120" />
      <path
         d="m 9323.13,10593.9 c -103.19,98.9 -236.93,167.9 -379.19,183.3 -79.78,8.8 -160.39,0.8 -238.75,-15.4 l -12.21,-2.1 c 61.87,-149.2 176.05,-276.8 319.14,-352.1 132.3,-69.4 287.19,-93.4 434.57,-70.2 16.28,2.4 33.79,5.1 51.28,8.4 -43.15,92.3 -101.55,177.4 -174.84,248.1"
         style="fill:#ce3b56;fill-opacity:1;fill-rule:nonzero;stroke:none"
         id="path122" />
      <path
         d="m 7086.93,12012.8 c -44,82.3 -45.75,189 11.19,266.2 54.8,74.3 157.26,109.5 244.59,76.9 86.61,-32.2 144.73,-116 182.07,-196.6 43.07,-93 63.31,-194.6 64.79,-296.6 -74.53,-36 -127.91,-108.9 -132.19,-194.1 -5.07,-100.4 61.65,-184.8 150.86,-222 60.36,-25.1 86.72,73.3 27.04,98.1 -111.31,46.4 -90.82,202.3 18.52,234.1 21.99,6.4 36.73,26.4 37.34,49.1 6.33,236 -96.44,598.1 -373.77,638.8 -120.85,17.7 -243.45,-41.2 -310.88,-141.9 -72.35,-108.2 -67.26,-251.4 -7.43,-363.4 30.86,-57.7 118.76,-6.4 87.87,51.4"
         style="fill:#2f0d1e;fill-opacity:1;fill-rule:nonzero;stroke:none"
         id="path124" />
      <path
         d="m 9115.49,13300.6 c -75.42,-2.3 -151.25,-13.4 -223.97,-33.6 -66.43,-18.5 -151.84,-41.1 -195.42,-97.6 -16.91,-22 -3.19,-56.8 18.25,-69.6 26.08,-15.7 52.93,-3.4 69.61,18.2 12.6,16.4 58.01,25.9 77.45,32.8 29.3,10.4 59.17,19.2 89.42,26.4 62.85,14.9 126.78,22 191.33,22 49.05,0 97.93,-4.2 146,-12.7 76.43,-13.4 150.85,-37.5 220.77,-72.1 58.49,-29 110.11,58.8 51.35,87.8 -74.85,37.1 -154,64.2 -235.38,80.6 -68.64,13.8 -138.86,19.9 -209.41,17.8"
         style="fill:#2f0d1e;fill-opacity:1;fill-rule:nonzero;stroke:none"
         id="path126" />
      <path
         d="m 9074.64,9875.3 c -268.57,30 -520.64,123.7 -739.42,266.5 -338.36,220.7 -597.05,558.7 -713.76,959.1 -18.29,62.8 -116.53,36.1 -98.14,-27 144.99,-497.4 493.12,-898.8 941.34,-1121.1 53.22,-26.4 107.86,-50.3 163.73,-71.5 141.72,-53.8 291.4,-90.5 446.25,-107.8 24.53,-2.8 39.72,10 45.66,27.4 9.82,28.7 -5.53,69.9 -45.66,74.4"
         style="fill:#2f0d1e;fill-opacity:1;fill-rule:nonzero;stroke:none"
         id="path128" />
      <path
         d="M 11410.4,9467.8 10799,7960.9 c -51.4,134.9 -106.8,268.4 -166,400.1 31.5,159.1 47.9,321 48.2,483.2 0.1,65.4 -101.6,65.5 -101.7,0 -0.2,-107.3 -7.4,-214.3 -21.9,-320.4 -45.6,95.3 -93.1,189.5 -142.7,282.8 -30.7,57.8 -118.6,6.5 -87.9,-51.4 160.2,-301.4 299,-613.1 415.5,-933.6 L 9622.37,5060.9 H 5248.7 v -306.6 h 11730.6 v 0.1 l 1912.3,4713.4 h -7481.2"
         style="fill:#2f0d1e;fill-opacity:1;fill-rule:nonzero;stroke:none"
         id="path130" />
      <path
         d="M 3982.37,9575.5 3693.93,8689 c 97.81,-51.9 198.55,-121.7 260.36,-202.6 53.49,-70 77.86,-148.3 45.87,-230.6 -64.02,-164.6 -348.6,-152.1 -492,-137.7 l -19.82,-60.9 c 87.41,-40.4 171.22,-90.8 249.71,-145 82.92,-57.3 164.91,-122.2 212.29,-211.2 47.38,-88.9 51.95,-207.7 -13.71,-284.1 -65.19,-76 -180.31,-90.2 -277.34,-65.6 -97.05,24.7 -182.51,80.7 -271.28,127 -24.98,13 -50.35,25.3 -76.06,36.8 l -63.23,-194.3 c 15.11,-20.7 28.19,-40.1 38.78,-57.2 80.34,-130 111.64,-300.7 41.36,-436.5 -7.77,-14.9 -17.07,-29.8 -31.08,-39.2 -19.31,-13 -44.31,-13.5 -67.48,-11.4 -50.96,4.8 -99.25,20.1 -144.94,42.3 l -327.09,-1005.2 1025.91,-376 224.11,521.6 c 1.12,9.2 5.01,17.7 10.67,24.8 l 257.52,599.4 1070.66,2491.9 -1364.77,500.2"
         style="fill:#ce3b56;fill-opacity:1;fill-rule:nonzero;stroke:none"
         id="path132" />
      <path
         d="m 2758.27,5813.6 327.09,1005.2 c -74.43,36.2 -141.99,90.6 -203.07,147.4 -90.57,84.2 -173.74,176.4 -248.21,275.1 -54.73,-199.6 -82.61,-455.9 -238.14,-607 -50.48,-49 -127.71,-85.6 -190.01,-52.9 -7.12,3.7 -13.66,8.2 -19.67,13.3 l -3.18,-10.4 -153.99,-503.5 729.18,-267.2"
         style="fill:#9e273d;fill-opacity:1;fill-rule:nonzero;stroke:none"
         id="path134" />
      <path
         d="m 3503.28,8118.6 c -162.46,16.8 -325.97,52.3 -487.55,28.6 162.38,19.5 322.79,-20.7 472.61,-90 l 19.82,60.9 c -1.64,0.2 -3.28,0.4 -4.88,0.5"
         style="fill:#9e273d;fill-opacity:1;fill-rule:nonzero;stroke:none"
         id="path136" />
      <path
         d="m 2854.66,7636.3 c 133.73,-12.8 301.68,-188.9 394.06,-315.5 l 63.23,194.3 c -144.49,64.9 -299.61,106.1 -457.29,121.2"
         style="fill:#9e273d;fill-opacity:1;fill-rule:nonzero;stroke:none"
         id="path138" />
      <path
         d="m 5377.35,9145.7 7.33,-2.6 c 23.8,-8.8 50.4,3.6 59.12,27.4 8.72,23.7 -3.6,50.3 -27.4,59.1 l -62.89,23 -62.04,154.4 -170.59,62.5 -68.82,171.3 -602.66,220.8 67.76,184.9 278.37,759.5 948.22,3.5 -0.44,119.7 -1026.1,-3.8 0.01,-3.1 -3.33,1.2 -374.42,-1021.6 -598.06,219.2 -163.18,-86.2 -170.61,62.5 -147.07,-77.7 -62.91,23.1 c -23.78,8.7 -50.38,-3.7 -59.1,-27.4 -8.73,-23.9 3.6,-50.5 27.4,-59.2 l 43.52,-15.9 2167.89,-794.6"
         style="fill:#f5eae5;fill-opacity:1;fill-rule:nonzero;stroke:none"
         id="path140" />
      <path
         d="m 4254.06,7070.9 c -95.88,-217.9 -192,-435.8 -288.2,-653.5 -24.11,-54.7 56.54,-102.4 80.85,-47.3 267.77,606.2 533.59,1213.2 799.29,1820.2 98.92,226.1 198.02,452.1 297.19,678.1 23.98,54.6 -56.66,102.4 -80.85,47.2 -269.79,-614.7 -537.87,-1230.2 -808.28,-1844.7"
         style="fill:#f24e67;fill-opacity:1;fill-rule:nonzero;stroke:none"
         id="path142" />
      <path
         d="m 2389.54,5769 1336.54,-489.9 58.1,158.5 -1025.91,376 -729.18,267.2 -58.1,-158.4 368.24,-135 50.31,-18.4"
         style="fill:#f5eae5;fill-opacity:1;fill-rule:nonzero;stroke:none"
         id="path144" />
      <path
         d="m 2205.93,6581.4 c 62.3,-32.7 139.53,3.9 190.01,52.9 155.53,151.1 183.41,407.4 238.14,607 74.47,-98.7 157.64,-190.9 248.21,-275.1 61.08,-56.8 128.64,-111.2 203.07,-147.4 45.69,-22.2 93.98,-37.5 144.94,-42.3 23.17,-2.1 48.17,-1.6 67.48,11.4 14.01,9.4 23.31,24.3 31.08,39.2 70.28,135.8 38.98,306.5 -41.36,436.5 -10.59,17.1 -23.67,36.5 -38.78,57.2 -92.38,126.6 -260.33,302.7 -394.06,315.5 157.68,-15.1 312.8,-56.3 457.29,-121.2 25.71,-11.5 51.08,-23.8 76.06,-36.8 88.77,-46.3 174.23,-102.3 271.28,-127 97.03,-24.6 212.15,-10.4 277.34,65.6 65.66,76.4 61.09,195.2 13.71,284.1 -47.38,89 -129.37,153.9 -212.29,211.2 -78.49,54.2 -162.3,104.6 -249.71,145 -149.82,69.3 -310.23,109.5 -472.61,90 161.58,23.7 325.09,-11.8 487.55,-28.6 1.6,-0.1 3.24,-0.3 4.88,-0.5 143.4,-14.4 427.98,-26.9 492,137.7 31.99,82.3 7.62,160.6 -45.87,230.6 -61.81,80.9 -162.55,150.7 -260.36,202.6 -79.02,41.9 -156.11,72.1 -209.21,87.1 -130.55,36.7 -263.09,66.3 -396.85,88.6 -66.32,11 -134.55,20.1 -201.6,18.8 l 58.47,191.2 c -28.42,154.4 -100.35,306.2 -233.33,386.5 -147.07,88.7 -375.6,45.7 -437.23,-114.6 -40.41,-105.2 -2.46,-222 27.46,-330.6 51.71,-187.8 78.42,-382.4 80.05,-577.2 0.04,-4.6 -0.16,-10 -0.53,-16.1 -8.68,-24.6 -16.7,-49.2 -24.13,-73.7 -24.94,-81.9 -47.32,-164.8 -66.88,-248.4 l -3.57,-0.7 0.55,-12.3 c -37.08,-160.8 -63.65,-324.1 -77.7,-488.4 -21.77,-254.5 -5.55,-507 -56.41,-759.2 -1.26,-6.2 -2.54,-12.5 -3.81,-18.7 -8.22,-40.4 -15.91,-81.3 -12.17,-122.2 3.34,-36.6 17.72,-74.1 43.62,-99.3 1.81,-1.7 3.69,-3.4 5.6,-5.1 6.01,-5.1 12.55,-9.6 19.67,-13.3"
         style="fill:#f25376;fill-opacity:1;fill-rule:nonzero;stroke:none"
         id="path146" />
      <path
         d="m 4014.51,5929 c 186.57,-345.7 350.5,-703 490.1,-1070.1 23.08,-60.7 121.49,-34.4 98.15,27 -142.72,375.4 -309.63,741.1 -500.39,1094.5 -19.9,36.8 -63.07,29.1 -83.41,3.6 -5.66,-7.1 -9.55,-15.6 -10.67,-24.8 -1.15,-9.5 0.56,-19.7 6.22,-30.2"
         style="fill:#2f0d1e;fill-opacity:1;fill-rule:nonzero;stroke:none"
         id="path148" />
      <path
         d="M 5662.89,8224.6 C 5431.82,7662.2 5222.56,7090.3 5036.67,6512 c -20.1,-62.5 78.12,-89.3 98.12,-27 185.42,576.8 393.95,1147.3 624.56,1708.3 3.9,5.5 6.67,11.9 7.8,19 94.04,228.2 191.73,454.8 293.02,679.6 26.7,59.3 -60.98,111.1 -87.87,51.4 -84.03,-186.5 -165.62,-374.2 -244.78,-563 -36.46,144.4 -69.41,289.5 -98.85,435.5 -12.94,64.1 -111.05,37 -98.14,-27.1 38.18,-189.4 82.35,-377.5 132.36,-564.1"
         style="fill:#2f0d1e;fill-opacity:1;fill-rule:nonzero;stroke:none"
         id="path150" />
      <path
         d="m 12485.6,12705.8 c -41.6,-470 -393.2,-569.8 -393.2,-569.8 341.2,-60.6 393.2,-520.8 393.2,-520.8 0,0 51.9,460.2 393.2,520.8 0,0 -351.7,99.8 -393.2,569.8"
         style="fill:#f5eae5;fill-opacity:1;fill-rule:nonzero;stroke:none"
         id="path152" />
      <path
         d="m 14826.3,12048.7 c -18.8,-212.8 -178,-258 -178,-258 154.5,-27.4 178,-235.8 178,-235.8 0,0 23.6,208.4 178.1,235.8 0,0 -159.2,45.2 -178.1,258"
         style="fill:#fabb5a;fill-opacity:1;fill-rule:nonzero;stroke:none"
         id="path154" />
      <path
         d="m 11378.3,10780.8 c -17.2,-194.7 -162.9,-236.1 -162.9,-236.1 141.4,-25.1 162.9,-215.9 162.9,-215.9 0,0 21.6,190.8 163,215.9 0,0 -145.7,41.4 -163,236.1"
         style="fill:#fabb5a;fill-opacity:1;fill-rule:nonzero;stroke:none"
         id="path156" />
      <path
         d="m 13585.9,10368.9 c -17.2,-194.8 -163,-236.2 -163,-236.2 141.5,-25.1 163,-215.8 163,-215.8 0,0 21.5,190.7 163,215.8 0,0 -145.8,41.4 -163,236.2"
         style="fill:#f5eae5;fill-opacity:1;fill-rule:nonzero;stroke:none"
         id="path158" />
      <path
         d="m 12552,13721.2 c 0,0 21.5,190.7 162.9,215.9 0,0 -145.7,41.3 -162.9,236.1 -17.3,-194.8 -163,-236.1 -163,-236.1 141.4,-25.2 163,-215.9 163,-215.9"
         style="fill:#f5eae5;fill-opacity:1;fill-rule:nonzero;stroke:none"
         id="path160" />
      <path
         d="m 5716.66,11575.8 c 0,0 21.53,190.7 162.98,215.8 0,0 -145.75,41.4 -162.98,236.2 -17.23,-194.8 -162.97,-236.2 -162.97,-236.2 141.44,-25.1 162.97,-215.8 162.97,-215.8"
         style="fill:#fabb5a;fill-opacity:1;fill-rule:nonzero;stroke:none"
         id="path162" />
    </g>
  </g>
</svg>
